<svg xmlns="http://www.w3.org/2000/svg" enable-background="new 0 0 512 512" viewBox="0 0 512 512" id="phone"><path fill="#10b981" d="M340.4,0h-170c-30.3,0-55,24.7-55,55V457c0,30.3,24.7,55,55,55h170c30.3,0,55-24.7,55-55V55
	C395.4,24.7,370.8,0,340.4,0z M234.7,22.6h42.2c4.9,0,8.8,4.5,8.8,10s-3.9,10-8.8,10h-42.2c-4.9,0-8.8-4.5-8.8-10
	S229.8,22.6,234.7,22.6z M194.8,21.1c6.3,0,11.5,5.1,11.5,11.5S201.1,44,194.8,44c-6.3,0-11.5-5.1-11.5-11.5S188.4,21.1,194.8,21.1z
	 M255.8,477.1c-10.2,0-18.4-8.2-18.4-18.4c0-10.2,8.2-18.4,18.4-18.4s18.4,8.2,18.4,18.4C274.2,468.9,266,477.1,255.8,477.1z
	 M363.4,429.5H147.5V66.6h215.9V429.5z" class="color231f20 svgShape"></path></svg>